<?xml version="1.0" encoding="utf-8"?>
<!-- Generator: Adobe Illustrator 26.0.3, SVG Export Plug-In . SVG Version: 6.00 Build 0)  -->
<svg version="1.0" id="katman_1" xmlns="http://www.w3.org/2000/svg" xmlns:xlink="http://www.w3.org/1999/xlink" x="0px" y="0px"
	 viewBox="0 0 600 450" style="enable-background:new 0 0 600 450;" xml:space="preserve">
<style type="text/css">
	.st0{fill:#78992B;}
	.st1{fill:#221F20;}
	.st2{fill:#81983C;}
</style>
<g>
	<path class="st0" d="M415.8,324.8V211.2h18.8l23.9,70.3v-70.3h17.2v113.6h-17.9L433,250.9v73.8H415.8z"/>
	<g>
		<path class="st0" d="M478.1,353.4H121.3c-0.7,0-1.2-0.5-1.2-1.2c0-0.7,0.5-1.2,1.2-1.2h356.9c0.7,0,1.2,0.5,1.2,1.2
			C479.3,352.9,478.8,353.4,478.1,353.4"/>
		<path class="st0" d="M478.1,406.9H121.3c-0.7,0-1.2-0.5-1.2-1.2c0-0.7,0.5-1.2,1.2-1.2h356.9c0.7,0,1.2,0.5,1.2,1.2
			C479.3,406.4,478.8,406.9,478.1,406.9"/>
		<g>
			<g>
				<path class="st1" d="M145.7,370v17.8c0,4.5-2.8,6.5-7.5,6.5h-7.6v-30.8h7.6C142.9,363.5,145.7,365.4,145.7,370z M138.1,367.1
					h-3.3v23.5h3.3c2.3,0,3.5-0.9,3.5-3.6v-16.2C141.6,368,140.4,367.1,138.1,367.1z"/>
				<path class="st1" d="M150.7,394.3v-30.8h4.1v30.8H150.7z"/>
				<path class="st1" d="M159.9,394.3v-30.8h4.1l7.7,21.2v-21.2h3.8v30.8h-4l-7.9-21.9v21.9H159.9z"/>
				<path class="st1" d="M187.8,363.1h0.4c4.7,0,7.5,2,7.5,6.5v18.5c0,4.5-2.8,6.5-7.5,6.5h-0.4c-4.7,0-7.5-2-7.5-6.5v-18.5
					C180.4,365,183.2,363.1,187.8,363.1z M188,391c2.3,0,3.5-0.9,3.5-3.6v-16.9c0-2.7-1.2-3.6-3.5-3.6c-2.3,0-3.5,0.9-3.5,3.6v16.9
					C184.5,390,185.7,391,188,391z"/>
				<path class="st1" d="M210.5,374.3v-4.2c0-2.5-1.2-3.4-3.3-3.4c-2.1,0-3.3,1-3.3,3.4v2.1c0,1.8,0.7,2.5,2.4,3.5l4,2.2
					c2.6,1.5,4.3,3,4.3,5.9v4.3c0,4.6-2.7,6.4-7.4,6.4h-0.1c-4.7,0-7.4-1.8-7.4-6.4V383h4.1v4.5c0,2.4,1.2,3.5,3.3,3.5
					c2.2,0,3.3-1.1,3.3-3.5v-2.4c0-1.8-0.7-2.6-2.5-3.6l-4-2.2c-2.8-1.6-4.3-2.9-4.3-5.9v-3.9c0-4.4,3.1-6.3,7.3-6.3h0.1
					c4.2,0,7.3,1.9,7.3,6.3v4.9L210.5,374.3L210.5,374.3z"/>
				<path class="st1" d="M228.6,387H222l-1.3,7.3h-4l6.1-30.8h5.1l6.2,30.8h-4.2L228.6,387z M228,383.5l-2.6-14.9l-2.7,14.9H228z"/>
				<path class="st1" d="M251.8,388.1c0,4.6-2.7,6.5-7.4,6.5h-0.2c-4.7,0-7.4-1.8-7.4-6.5v-24.6h4.1v23.8c0,2.7,1.1,3.6,3.3,3.6
					s3.3-0.9,3.3-3.6v-23.8h4.1L251.8,388.1L251.8,388.1z"/>
				<path class="st1" d="M268.7,394.3l-4.3-12.6h0h-3.6v12.6h-4.1v-30.8h7.7c4.7,0,7.5,2,7.5,6.5v5.1c0,3.1-1.3,5-3.6,5.9l4.7,13.2
					H268.7z M260.8,378h3.4c2.3,0,3.5-0.9,3.5-3.6v-3.6c0-2.7-1.2-3.6-3.5-3.6h-3.4V378z"/>
				<path class="st1" d="M286.3,374.3v-4.2c0-2.5-1.2-3.4-3.3-3.4s-3.3,1-3.3,3.4v2.1c0,1.8,0.7,2.5,2.4,3.5l4,2.2
					c2.6,1.5,4.3,3,4.3,5.9v4.3c0,4.6-2.7,6.4-7.4,6.4H283c-4.7,0-7.4-1.8-7.4-6.4V383h4.1v4.5c0,2.4,1.2,3.5,3.3,3.5
					s3.3-1.1,3.3-3.5v-2.4c0-1.8-0.7-2.6-2.5-3.6l-4-2.2c-2.8-1.6-4.3-2.9-4.3-5.9v-3.9c0-4.4,3.1-6.3,7.3-6.3h0.1
					c4.2,0,7.3,1.9,7.3,6.3v4.9L286.3,374.3L286.3,374.3z"/>
				<path class="st1" d="M316.8,370v17.8c0,4.5-2.8,6.5-7.5,6.5h-7.6v-30.8h7.6C314,363.5,316.8,365.4,316.8,370z M309.2,367.1h-3.3
					v23.5h3.3c2.3,0,3.5-0.9,3.5-3.6v-16.2C312.7,368,311.5,367.1,309.2,367.1z"/>
				<path class="st1" d="M328.9,363.1h0.4c4.7,0,7.5,2,7.5,6.5v18.5c0,4.5-2.8,6.5-7.5,6.5h-0.4c-4.7,0-7.5-2-7.5-6.5v-18.5
					C321.4,365,324.2,363.1,328.9,363.1z M329,391c2.3,0,3.5-0.9,3.5-3.6v-16.9c0-2.7-1.2-3.6-3.5-3.6c-2.3,0-3.5,0.9-3.5,3.6v16.9
					C325.5,390,326.8,391,329,391z"/>
				<path class="st1" d="M341.4,394.3v-30.8h4.1l7.7,21.2v-21.2h3.8v30.8h-4l-7.9-21.9v21.9H341.4z"/>
				<path class="st1" d="M362.1,394.3v-30.8h13v3.6h-8.8v9.7h7.5v3.7h-7.5v10.1h9v3.6H362.1z"/>
				<path class="st1" d="M398.2,394.3l-4.3-12.6h0h-3.6v12.6h-4.1v-30.8h7.7c4.7,0,7.5,2,7.5,6.5v5.1c0,3.1-1.3,5-3.6,5.9l4.7,13.2
					H398.2z M390.4,378h3.4c2.3,0,3.5-0.9,3.5-3.6v-3.6c0-2.7-1.2-3.6-3.5-3.6h-3.4V378z"/>
				<path class="st1" d="M406.3,394.3v-30.8h4.1v30.8H406.3z"/>
				<path class="st1" d="M430.6,388.1c0,4.6-2.8,6.5-7.5,6.5h-0.4c-4.7,0-7.5-1.8-7.5-6.5v-18.5c0-4.4,2.8-6.5,7.5-6.5h0.4
					c4.7,0,7.5,2.1,7.5,6.5v4.3h-4.1v-3.5c0-2.7-1.2-3.6-3.5-3.6c-2.3,0-3.5,0.9-3.5,3.6v16.9c0,2.7,1.2,3.6,3.5,3.6
					c2.3,0,3.5-0.9,3.5-3.6v-5.1h-3.7v-3.5h7.8V388.1z"/>
				<path class="st1" d="M439.4,363.5v13.3h7.3v-13.3h4.1v30.8h-4.1v-13.8h-7.3v13.8h-4.1v-30.8H439.4z"/>
				<path class="st1" d="M468.7,367.1h-5.4v27.2h-4.1v-27.2h-5.4v-3.6h14.9V367.1z"/>
			</g>
		</g>
	</g>
	<path class="st0" d="M180.6,99.8v65.6c0,17.2-11.4,24-28.6,24H123V75.8H152C169.2,75.8,180.6,82.6,180.6,99.8z M151.4,92.3h-9.6
		v80.5h9.6c6.2,0,10.4-2.3,10.4-10.4v-59.7C161.8,94.6,157.5,92.3,151.4,92.3z"/>
	<path class="st0" d="M227.8,189.4V75.8h18.8l23.9,70.3V75.8h17.2v113.6h-17.9L245,115.5v73.8C245,189.4,227.8,189.4,227.8,189.4z"
		/>
	<path class="st0" d="M331.8,74.5h1.3c17.2,0,28.6,6.8,28.6,24v68.2c0,17.2-11.4,24-28.6,24h-1.3c-17.2,0-28.6-6.8-28.6-24V98.5
		C303.3,81.1,314.6,74.5,331.8,74.5z M332.5,174.1c6.2,0,10.4-2.3,10.4-10.4v-62.3c0-8.1-4.2-10.4-10.4-10.4
		c-6.2,0-10.4,2.3-10.4,10.4v62.3C322.1,171.8,326.3,174.1,332.5,174.1z"/>
	<path class="st2" d="M235.5,322.6c0-0.1,0.1-0.3,0.1-0.4C235.6,322.3,235.5,322.4,235.5,322.6z"/>
	<g>
		<path class="st0" d="M309.6,219.9c-6.8-3.9-25-12.2-46-12.1c-4.8,0-27.3,0.8-38.7-15.1c-10.9-15.2-11.7-70.3-13.1-85.7
			c-0.9-9.7-1.7-16.8-1.9-18.8c-1-9.6-4-18.6-8.2-27.3c0,0-6-15-22.5-16.8c-3.2-0.2-5.9,0.2-5.9,0.2c-3.6,0.4-6.9,1.5-9.5,4.6
			c-0.8,0.9-5.9,3.8-6.7,4.8c-0.9,1.2-1.4,1.9-1.6,3.7c-0.3,2.3,0.3,5.8,2.7,7c0.1,0.2,0.1,0.4,0.1,0.5c0,0.1,0.1,0.2,0.1,0.3
			c1.1,3,3.2,3.3,4.6,3.4c2.5,0.3,5.1,0.1,7.7-0.1c27.3-2,25,65.2,23.6,82c-0.5,5.9-4.5,43.2,5.3,86.6c2,8.8,6.2,17.6,10.3,25.7
			c2.1,4.1,3.4,8.1,3.3,12.8c-0.1,5.1-0.6,9.3-0.3,14.4c0.1,4.6,2.9,9,3.9,14c0.4,2-0.4,4.2-0.7,6.3c-0.4,1.1-0.8,0.9-0.6,3.1
			c0,0.1,0.1,0.4,0.3,0.5c4.3,1.3,12.1,1.1,14.9-0.1c0.3-0.1,0.4-0.4,0.4-0.5c0.2-1.4-0.5-3.1-0.4-3.8c0.7-6.2-1.9-9.3-2.8-15.2
			c-1.4-9.6-0.8-14.1,3.2-22.9c0.8-1.8,1.7-2.1,3.5-1.1c3.6,2,6.2,2.9,9.9,4.5c1.4,0.6,1.7,1.2,2.3,3c1.2,3.2,2.7,5.4,3,8.8
			c0.2,2.7-0.3,5.5-0.6,8.2c-0.6,4.1-0.5,9.1-1.2,13.2c-2.2,2.7-2.6,2.9-3.2,6.3c-0.1,1.2,0.4,2.7,3,3c8.6,0.8,14.3,0.1,15.5-0.3
			c0.9-0.3,0.8-1.6,0.7-2.1c-0.2-1.3-0.3-2.2-0.6-3.8c-0.8-4.2,0.5-8.1,1.2-12.2c1.2-7,0-15.1,1.3-22.1c6.4,0.1,12.7-1,18.8-2.8
			c2.1-0.6,3.2-0.3,3.9,1.9c1.6,5.5,3.5,10.6,7.6,14.7c1.6,1.6,2.2,3.7,1.5,6.2c-1.3,4.3-1.8,6.1-3.1,10.3c-0.7,2.3-1.7,2.7-3.1,3.7
			c-0.6,0.5-1.1,1.1-1.6,1.7c-0.4,0.5-0.6,1.1-0.7,1.7c0,0.2-0.3,1.8,0.9,2.3c2.2,0.8,4.6,1,7,0.9c3.8-0.2,8-0.3,10.4-1.4
			c1.3-0.6,2.1-3.2,1.5-4.5c-0.8-1.7,0-4.6,0.1-6.3c0.3-3.4,0.4-3.7,0.9-7.1c0.3-2.5,1.2-5,1.2-7.3c0,0,0.1,0.1,0.1,0.1
			c-4.4-4.7-11.7-14.4-11.9-20.7c0,0-0.4-5.4,0.4-8.4c-0.4,4,4.1,6.3,4.7,6.6c0.2,0.1,1,0.4,1,1c0,1-4.6,2.4-2,8.3
			c0.8,1.9,1.8,3.7,3,5.3c7.2,10.1,11.6,12.9,12.9,13.2c0.4,0.1,0.9,0.1,1.2,0.4c0.4,0.3-0.3,0.8-0.5,0.9c-0.5,0.4-1.2,0.5-1.8,0.6
			c-0.5,0.1-0.2,0.1-0.7,0.1c-0.9,0-1.1,0.7-1.3,1.4c-0.7,2.2-1.4,8.8-4.6,11.7c0,0-0.8,3.6-3.3,6.7c-8.7,3.5-17.8,6.5-34.2,8.4
			c-10,1.1-28.1,0.1-37.5-4c0,0-0.4-0.2-0.6-0.2c-0.2,0-0.4,0.1-0.6,0.3c1,0.6,14.5,9.8,46.4,9.8c18.5,0,36.8-5.7,47.3-12.2
			c5.3-3.1,9.8-7.3,13.2-12.4c0,0,6.3-10.5,6.3-24.1C348.8,278.7,348.8,242.3,309.6,219.9z M332.3,286.8c-0.1,1.4-0.7,5.1-0.9,5.6
			c-3.8-3-5.4-7.4-5.4-7.4c0-0.1-0.1-0.2-0.1-0.3c-0.3-1-1.3-4.4-1.4-5.5c-0.1-1.1-0.1-2.2,0-3.3c0.1-1.7,1.5-7,1.5-7l0,0
			c0.2-1.1,0.4-1.4,0.5-2.7c0.2-1.7,0-2.5-0.4-4.1c0.1,0,0.2,0,0.3,0c1,1,2.4,3.9,2.5,5.3c0.2,1.4,0.1,2.9-0.1,4.3
			c0.9,1.9,2.1,5.4,3.2,10.3C332.4,283.6,332.4,285.2,332.3,286.8z"/>
		<g>
			<path class="st1" d="M253.2,306.4c-0.1-0.1-3.1-2-2.8-3.8c0.6-3.9,1-8,1.9-11.8c0.5-1.8,2.7-3.2,2.8-4.9c0.1-1.4-1.7-3-2.8-4.3
				c-3.4-4.1-17.4-28.9-10.4-49.2c0.8-2.4,1.5-3.4,2.4-4.4c1.1-1.2,0-2.7-1.3-2c-1.7,1-3,1.8-3.3,1.9c-2.8,1.7-5.8,1.3-7.2,1.3
				c-19.7,0-24.7-45.9-25.4-55.1c-1.8-24.1-1.4-50.4-2.7-67.3c-1.8-31.7-6.9-37.5-12.4-41.3c-6.1-4.2-12.1-2.6-16.8-1.5
				c-5.1,1.3-11.6,2.3-17.2,0.2c1.1,3.8,3.3,4,4.8,4.2c2.5,0.3,5.1,0.1,7.7-0.1c27.3-2,25,65.2,23.6,82c-0.5,5.9-4.5,43.2,5.3,86.6
				c2,8.8,6.2,17.6,10.3,25.7c2.1,4.1,3.4,8.1,3.3,12.8c-0.1,5.1-0.6,9.3-0.3,14.4c0.1,4.6,2.9,9,3.9,14c0.4,2-0.4,4.2-0.7,6.3
				c-0.4,1.1-0.8,0.9-0.6,3.1c0,0.1,0.1,0.4,0.3,0.5c4.3,1.3,12.1,1.1,14.9-0.1c0.3-0.1,0.4-0.4,0.4-0.5c0.2-1.4-0.5-3.1-0.4-3.8
				c0.7-6.2-1.9-9.3-2.8-15.2c-1.4-9.6-0.8-14.1,3.2-22.9c0.8-1.8,1.7-2.1,3.5-1.1c3.6,2,6.2,2.9,9.9,4.5c1.4,0.6,1.7,1.2,2.3,3
				c1.2,3.2,2.7,5.4,3,8.8c0.2,2.7-0.3,5.5-0.6,8.2c-0.6,4.1-0.5,9.1-1.2,13.2c1.7,0.2,3.3,0.5,5,0.6c0.7,0,2.2-0.1,2.1-0.7
				C255,306.7,253.9,306.8,253.2,306.4z"/>
			<path class="st1" d="M332.1,282c-1.1-4.9-2.3-8.4-3.2-10.3c0.2-1.4,0.2-2.9,0.1-4.3c-0.1-1.4-1.5-4.4-2.5-5.3
				c-0.1-0.1-0.2-0.1-0.3,0c0.4,1.6,0.6,2.4,0.4,4.1c-0.1,1.3-0.3,1.6-0.5,2.7l0,0c0,0-1.4,5.4-1.5,7c-0.1,1.1-0.2,2.2,0,3.3
				c0.1,1,1.1,4.5,1.4,5.5c0,0.1,0.1,0.2,0.1,0.3c0.1-2.7,1.1-5.5,1.6-8.4c3.8,5.1,3.9,10.2,3.9,10.2c0.1,2.2,0.2,3-0.1,5.5
				c0.2-0.5,0.8-4.2,0.9-5.6C332.4,285.2,332.4,283.6,332.1,282z"/>
			<path class="st1" d="M320.6,296.3c-0.3-0.2-0.8-0.3-1.2-0.4c-1.3-0.3-5.7-3.1-12.9-13.2c-1.2-1.7-2.2-3.4-3-5.3
				c-2.5-6,2-7.3,2-8.3c0-0.6-0.8-0.9-1-1c-0.6-0.3-5-2.5-4.7-6.4c0.4-4.7,1.7-10.8,4.9-17.2c2.3-4.5-7.9,6.4-9.9,9.2
				c-11.3,15.3-23.5,2.8-26-3.8c-5.2-14-10.7-12.2-10.3-11.6l0,0c0.6,0.8,12.7,9.7,7.2,38.2c6.4,0.1,12.7-1,18.8-2.8
				c2.1-0.6,3.2-0.3,3.9,1.9c1.6,5.5,3.5,10.6,7.6,14.7c1.6,1.6,2.2,3.7,1.5,6.2c-1.3,4.3-1.8,6.1-3.1,10.3
				c-0.7,2.3-1.7,2.7-3.1,3.7c-0.6,0.5-1.1,1.1-1.6,1.7c-0.4,0.5-0.6,1.1-0.7,1.7c0,0.2-0.3,1.8,0.9,2.3c2.2,0.8,4.6,1,7,0.9
				c3.8-0.2,8-0.3,10.4-1.4c1.3-0.6,2.1-3.2,1.5-4.5c-0.8-1.7,0-4.6,0.1-6.3c0.3-3.4,0.4-3.7,0.9-7.1c0.3-2.5,1.2-5,1.2-7.3
				c0.4,0.4,0.8,0.9,1.2,1.2c1.6,1.6,2,3.6,1.5,6.2c-1.8,9.4-2.2,13.1-2.2,13.1c3.2-2.9,3.9-9.5,4.6-11.7c0.2-0.7,0.4-1.4,1.3-1.4
				c0.5,0,0.2,0,0.7-0.1c0.6-0.1,1.3-0.3,1.8-0.6C320.4,297.1,321,296.6,320.6,296.3z"/>
			<path class="st1" d="M172.5,46.5c-0.3,0-0.6,0-0.8,0.1c-1.1,0.3-1.7,0.9-1.7,0.9c0,0-1.1,0.8-1.1,1.2c0,0.1,0.1,0.1,0.2,0
				c0.4,0,0.7,0.2,1,0.5c0.1,0.4,0.4,0.6,0.8,0.8c0.3,0.2,0.7,0.2,1,0c0.5-0.2,0.8-0.6,0.9-1.1c0.1-0.3,0.2-0.5,0.4-0.7
				c0.4-0.4,0.9-0.4,1.4-0.4c0.2,0,0.4,0.1,0.7,0.1c0.1,0,0.1,0.1,0.2,0.1c0,0,0.1,0,0,0C174.8,47.1,173.6,46.5,172.5,46.5z"/>
			<path class="st1" d="M329.4,319.8c-10.5,6.5-28.8,12.2-47.3,12.2c-32,0-45.6-9.3-46.4-9.8c-0.1,0.1-0.1,0.3-0.1,0.4
				c0,0.1,0,0.2,0.1,0.4c0,0,13.4,14.7,46.5,14.7c18.5,0,34.9-5.2,45.3-13.1c5.8-4.1,11.2-10,15.1-17
				C339.2,312.5,334.7,316.7,329.4,319.8z"/>
		</g>
	</g>
	<path class="st0" d="M373.1,209.9L373.1,209.9h-1.3l0,0c-17.2,0-28.6,6.7-28.6,24v9.7c10.4,16.8,11.6,33.1,11.6,39.6
		c0,15.1-6.9,26.7-7.1,27.2l-0.1,0.1l-0.1,0.1c-0.6,0.9-1.3,1.9-2,2.7c1.1,2.4,2.6,4.4,4.5,6.1c0,0,0,0,0.1,0c1.2,1.1,2.5,2,3.9,2.7
		c0.1,0.1,0.3,0.2,0.5,0.2c0.4,0.2,0.8,0.4,1.3,0.6c0.2,0.1,0.4,0.2,0.6,0.2c0.7,0.3,1.4,0.6,2.2,0.8c0.4,0.1,0.7,0.2,1.1,0.3
		c0.4,0.1,0.7,0.2,1.1,0.3c0.5,0.1,0.9,0.2,1.4,0.3c0.3,0.1,0.6,0.1,0.9,0.2c0.8,0.1,1.6,0.3,2.4,0.4c0.3,0,0.5,0.1,0.8,0.1
		c0.6,0.1,1.3,0.1,2,0.2c0.3,0,0.6,0,0.8,0.1c0.9,0,1.8,0.1,2.8,0.1l0,0h1.3l0,0c1,0,1.9,0,2.8-0.1c0.3,0,0.6,0,0.8-0.1
		c0.7,0,1.3-0.1,2-0.2c0.3,0,0.5-0.1,0.8-0.1c0.8-0.1,1.6-0.2,2.4-0.4c0.3-0.1,0.6-0.1,0.9-0.2c0.5-0.1,0.9-0.2,1.4-0.3
		c0.4-0.1,0.8-0.2,1.1-0.3c0.4-0.1,0.7-0.2,1.1-0.3c0.8-0.2,1.5-0.5,2.2-0.8c0.2-0.1,0.4-0.2,0.6-0.2c0.4-0.2,0.9-0.4,1.3-0.6
		c0.2-0.1,0.3-0.2,0.5-0.2c1.4-0.8,2.8-1.7,3.9-2.7c0,0,0,0,0.1,0c4.3-3.9,6.7-9.6,6.7-17.5v-57.5v-10.6
		C401.7,216.6,390.3,209.9,373.1,209.9z M382.9,299.2c0,8.1-4.2,10.4-10.4,10.4c-6.2,0-10.4-2.3-10.4-10.4v-62.3
		c0-8.1,4.2-10.4,10.4-10.4c6.2,0,10.4,2.3,10.4,10.4V299.2z"/>
</g>
</svg>
