<?xml version="1.0" encoding="utf-8"?>
<!-- Generator: Adobe Illustrator 26.5.0, SVG Export Plug-In . SVG Version: 6.00 Build 0)  -->
<svg version="1.0" id="katman_1" xmlns="http://www.w3.org/2000/svg" xmlns:xlink="http://www.w3.org/1999/xlink" x="0px" y="0px"
	 viewBox="0 0 1190.55 841.89" style="enable-background:new 0 0 1190.55 841.89;" xml:space="preserve">
<style type="text/css">
	.st0{fill:#25292C;}
	.st1{fill:#FFFFFF;}
</style>
<path class="st0" d="M1058,234.16H132v372.69h926V234.16z"/>
<path class="st1" d="M915.62,321.01v-57.04H756.88l-26.11,190.57l-25.83-190.57H647.7l6.41,50.85
	c-6.61-13.03-30.05-50.85-81.62-50.85c-0.34-0.02-57.32,0-57.32,0l-0.22,277.78l-41.72-277.78l-74.97-0.04L355.1,551.73l0.02-287.77
	h-71.75L257.5,425.63l-25.19-161.66h-71.77v312.9h56.52V426.05l25.71,150.81h30.05l25.35-150.81v150.81h108.96l6.61-48.15h43.87
	l6.59,48.15l106.97,0.07h0.09v-0.07h0.07h0.07V475.29l13.11-1.91l27.15,103.54h0.07h55.2h0.06l-0.02-0.07h0.1h0.07L631.49,455.5
	c18.06-13.35,38.44-47.27,33.02-79.71v-0.02c0.06,0.44,33.63,201.29,33.63,201.29l65.81-0.2l44.97-283.62v283.62h106.71v-56.27
	h-50.65v-71.76h50.65v-57.13h-50.65v-70.68H915.62z M420.39,479.09l15.52-133.77l16.11,133.77H420.39z M584.68,417.32
	c-4.35,2.11-8.88,3.17-13.3,3.17V319.84c0.08,0,0.17-0.02,0.28-0.02c4.43-0.02,37.43,1.34,37.43,49.8
	C609.08,394.96,597.86,410.93,584.68,417.32z M1029.49,520.54v56.27H925.4v-312.9h56.05v256.62H1029.49z"/>
</svg>
