<?xml version="1.0" encoding="utf-8"?>
<!-- Generator: Adobe Illustrator 26.5.0, SVG Export Plug-In . SVG Version: 6.00 Build 0)  -->
<svg version="1.0" id="katman_1" xmlns="http://www.w3.org/2000/svg" xmlns:xlink="http://www.w3.org/1999/xlink" x="0px" y="0px"
	 viewBox="0 0 1190.55 841.89" style="enable-background:new 0 0 1190.55 841.89;" xml:space="preserve">
<style type="text/css">
	.st0{fill:#010202;}
</style>
<g>
	<path class="st0" d="M381.32,493.95h23.87c0.37,0,0.56-0.42,0.33-0.7c-12.36-15.23-23.07-32.19-31.73-50.77
		c-11.98-25.69-19.09-52.4-21.73-79.09c-0.07-0.73,0.59-1.33,1.31-1.18l27.71,5.39c1.13,0.22,2.08,0.96,2.57,2.01l57.82,123.99
		c0.1,0.22,0.32,0.36,0.57,0.36h168.2c0.23,0,0.44-0.12,0.55-0.32l27.03-48.76c0.54-0.98,0.58-2.16,0.11-3.17l-87.64-187.92
		c-0.47-1.01-1.4-1.74-2.5-1.95l-60.54-11.77c-1.19-0.23-2.42-0.08-3.52,0.43l-128.1,59.73c-0.73,0.34-1.54-0.28-1.41-1.07
		c12.84-76.59,61.93-145.77,137.63-181.06c75.71-35.3,160.25-28.44,227.18,10.95c0.69,0.41,0.64,1.43-0.09,1.77l-31.83,14.84
		c-1.05,0.49-1.73,1.55-1.73,2.71v18.37l-28.86-5.61c-1.19-0.23-2.42-0.08-3.52,0.43l-50.9,23.73c-1.1,0.51-2,1.36-2.59,2.42
		l-29.9,53.94c-0.55,0.98-0.58,2.16-0.11,3.17l87.63,187.92c0.47,1.01,1.4,1.74,2.5,1.95l60.54,11.77c1.19,0.23,2.42,0.08,3.52-0.43
		l107.06-49.92c0.76-0.35,1.6,0.33,1.4,1.14c-8.57,34.98-24.82,67.91-47.75,96.14c-0.18,0.22-0.02,0.56,0.27,0.56h23.94
		c0.2,0,0.4-0.1,0.51-0.27c53.98-75,66.93-176.2,25.09-265.9C772.61,95.68,615.58,38.53,483.48,100.13
		c-132.1,61.6-189.25,218.62-127.65,350.72c7.16,15.35,15.62,29.68,25.17,42.93C381.07,493.89,381.19,493.95,381.32,493.95
		 M472.84,318.31c11.99-5.59,26.23-0.4,31.82,11.58l46.04,98.73c5.59,11.99,0.4,26.23-11.58,31.82l-26.27,12.25l-59.88-128.41
		c-0.47-1.01-1.4-1.74-2.5-1.95l-20.56-3.99L472.84,318.31z M749.48,150.26c27.61,22.52,50.7,51.45,66.76,85.9
		c18.15,38.92,25.15,80.18,22.32,120.18c-0.07,1.02-1.47,1.27-1.9,0.34L808,295.21c-0.43-0.92-1.53-1.33-2.46-0.89l-58.98,27.51
		c-0.92,0.43-1.33,1.53-0.89,2.46l15.27,32.73l-25.94,12.1c-11.99,5.59-26.23,0.4-31.82-11.58l-49.76-106.71
		c-0.47-1.01-1.4-1.74-2.5-1.95l-20.56-3.99l64.3-29.99l16.51,35.4c0.43,0.92,1.53,1.33,2.46,0.89l53.83-25.1
		c0.95-0.45,1.44-1.52,1.15-2.54l-20.71-72.22C747.63,150.37,748.73,149.64,749.48,150.26"/>
	<path class="st0" d="M363.25,515.22h-22.64c-0.29,0-0.53,0.24-0.53,0.53v132.44h-17.64c-1.1,0-1.98-0.89-1.98-1.98V515.74
		c0-0.29-0.24-0.53-0.53-0.53h-36.49c-0.22,0-0.42,0.14-0.5,0.35c-0.07,0.21-0.01,0.45,0.16,0.59l13.84,11.4v129.96
		c0,7.94,6.44,14.37,14.37,14.37h51.92c0.29,0,0.53-0.24,0.53-0.53V515.74C363.78,515.45,363.54,515.22,363.25,515.22"/>
	<path class="st0" d="M457.1,515.22h-22.64c-0.29,0-0.53,0.24-0.53,0.53v80.68l-28.42-80.8c-0.05-0.24-0.27-0.42-0.51-0.42h-20.8
		c-0.29,0-0.53,0.24-0.53,0.53v155.61c0,0.29,0.24,0.53,0.53,0.53h22.45c0.29,0,0.53-0.24,0.53-0.53v-79.86l29.89,79.97
		c0.05,0.24,0.27,0.42,0.52,0.42h19.51c0.29,0,0.53-0.24,0.53-0.53V515.74C457.63,515.45,457.39,515.22,457.1,515.22"/>
	<path class="st0" d="M500.5,515.22h-22.45c-0.29,0-0.53,0.24-0.53,0.53v155.61c0,0.29,0.24,0.53,0.53,0.53h22.45
		c0.29,0,0.53-0.24,0.53-0.53V515.74C501.03,515.45,500.79,515.22,500.5,515.22"/>
	<path class="st0" d="M584.47,515.22h-22.64c-0.28,0-0.51,0.22-0.53,0.5l-10.57,132.47l-10.52-132.47c-0.01-0.29-0.25-0.5-0.53-0.5
		h-22.64c-0.14,0-0.29,0.06-0.38,0.17c-0.1,0.11-0.15,0.25-0.14,0.39l11.73,155.6c0.02,0.28,0.25,0.5,0.53,0.5h43.96
		c0.28,0,0.51-0.22,0.53-0.5l11.73-155.6c0.01-0.14-0.04-0.29-0.14-0.39C584.76,515.28,584.62,515.22,584.47,515.22"/>
	<path class="st0" d="M739.67,600.21v-70.63c0-7.92-6.36-14.37-14.19-14.37h-51.92c-0.29,0-0.53,0.24-0.53,0.53v155.61
		c0,0.29,0.24,0.53,0.53,0.53h22.45c0.29,0,0.53-0.24,0.53-0.53v-56.95h12.03l10.13,57.03c0.04,0.25,0.26,0.45,0.52,0.45h23.49
		c0.16,0,0.3-0.07,0.4-0.19c0.1-0.12,0.14-0.28,0.12-0.43l-11.36-58.39C736.63,610.5,739.67,605.58,739.67,600.21 M714.95,541.83
		v46.2c0,1.62-1.31,2.93-2.93,2.93h-16.84V538.9h16.84C713.64,538.9,714.95,540.21,714.95,541.83"/>
	<path class="st0" d="M759.55,626.28v31.75c0,7.65,6.2,13.85,13.85,13.85h39.13c7.61,0,13.85-6.23,13.85-13.85v-65.76
		c0-7.65-6.19-13.85-13.85-13.85h-29.47v-39.7h19.62v27.87c0,0.32,0.33,0.53,0.62,0.39l22.83-10.81c0.16-0.07,0.25-0.22,0.25-0.39
		v-26.72c0-7.65-6.19-13.85-13.85-13.85h-39.13c-7.65,0-13.85,6.2-13.85,13.85v59.03c0,7.65,6.19,13.84,13.84,13.84h29.29v46.25
		h-19.62v-32.76c0-0.19-0.2-0.32-0.37-0.24l-22.99,10.85C759.61,626.09,759.55,626.18,759.55,626.28"/>
	<path class="st0" d="M900.17,538.72c0.22,0,0.43-0.14,0.5-0.36l6.41-22.45c0.06-0.16,0.03-0.34-0.07-0.48
		c-0.1-0.14-0.25-0.22-0.43-0.22h-59.79c-0.29,0-0.53,0.24-0.53,0.53v155.61c0,0.29,0.24,0.53,0.53,0.53h55.94
		c0.29,0,0.53-0.24,0.53-0.53v-22.64c0-0.29-0.24-0.53-0.53-0.53h-32.96v-46.25h27.17c0.29,0,0.53-0.24,0.53-0.53v-22.45
		c0-0.29-0.24-0.53-0.53-0.53h-27.17v-39.7H900.17z"/>
	<path class="st0" d="M653.39,538.72c0.22,0,0.43-0.14,0.5-0.36l6.41-22.45c0.06-0.16,0.03-0.34-0.07-0.48
		c-0.1-0.14-0.26-0.22-0.43-0.22h-59.79c-0.29,0-0.53,0.24-0.53,0.53v155.61c0,0.29,0.24,0.53,0.53,0.53h55.94
		c0.29,0,0.53-0.24,0.53-0.53v-22.64c0-0.29-0.24-0.53-0.53-0.53H623v-46.25h27.17c0.29,0,0.53-0.24,0.53-0.53v-22.45
		c0-0.29-0.24-0.53-0.53-0.53H623v-39.7H653.39z"/>
	<rect x="297.2" y="693.72" class="st0" width="16.72" height="51.3"/>
	<polygon class="st0" points="351.92,693.72 365.82,693.72 403.65,725.49 404.18,725.49 404.18,693.72 418.88,693.72 418.88,745.02 
		404.71,745.02 367.14,712.9 366.7,712.9 366.7,745.02 351.92,745.02 	"/>
	<polygon class="st0" points="456.95,693.72 508.25,693.72 508.25,704.55 473.67,704.55 473.67,717.57 502.36,717.57 502.36,727.78 
		473.67,727.78 473.67,745.02 456.95,745.02 	"/>
	<rect x="541.23" y="693.72" class="st0" width="16.72" height="51.3"/>
	<polygon class="st0" points="595.95,693.72 609.85,693.72 647.68,725.49 648.21,725.49 648.21,693.72 662.91,693.72 662.91,745.02 
		648.74,745.02 611.17,712.9 610.73,712.9 610.73,745.02 595.95,745.02 	"/>
	<rect x="700.99" y="693.72" class="st0" width="16.72" height="51.3"/>
	<polygon class="st0" points="750.25,693.72 817.03,693.72 817.03,705.34 791.87,705.34 791.87,745.02 775.15,745.02 775.15,705.34 
		750.25,705.34 	"/>
	<polygon class="st0" points="849.56,693.72 903.24,693.72 903.24,704.55 866.29,704.55 866.29,714.22 897.43,714.22 897.43,723.82 
		866.29,723.82 866.29,734.11 904.12,734.11 904.12,745.02 849.56,745.02 	"/>
</g>
</svg>
